<svg width="129" height="81" viewBox="0 0 129 81" fill="none" xmlns="http://www.w3.org/2000/svg">
<path d="M120.629 9.95664C120.629 10.0511 120.629 10.1691 120.605 10.24C120.484 11.1608 120.484 12.0817 120.556 13.0261C120.605 13.2622 120.653 13.4983 120.846 13.6872C121.16 14.0414 121.643 13.9706 121.836 13.5456C121.933 13.3331 121.933 13.1206 121.884 12.9081C121.643 12.0108 121.595 11.0664 121.571 10.1455C121.571 10.0983 121.571 10.0275 121.571 9.95664C121.836 9.93302 122.078 9.9094 122.295 9.9094C122.464 9.8858 122.609 9.86218 122.73 9.79135C123.092 9.60247 123.092 9.20108 122.705 9.01218C122.561 8.94134 122.367 8.91772 122.198 8.91772C121.595 8.94134 120.991 8.94134 120.387 8.94134C120.17 8.94134 119.953 8.96496 119.735 8.98856C119.614 9.01218 119.47 9.01218 119.373 9.08302C119.204 9.15384 119.107 9.2719 119.107 9.43717C119.132 9.60247 119.204 9.69691 119.373 9.76775C119.47 9.83858 119.59 9.86218 119.711 9.86218C120.001 9.8858 120.315 9.93302 120.629 9.95664ZM127.27 11.0428C127.27 11.0664 127.294 11.09 127.294 11.09C127.39 11.7275 127.487 12.3414 127.559 12.9553C127.584 13.1678 127.608 13.3567 127.753 13.5219C128.067 13.9233 128.55 13.8761 128.767 13.4511C128.864 13.2386 128.888 13.0261 128.839 12.79C128.695 12.0817 128.622 11.3733 128.477 10.6886C128.38 10.2636 128.26 9.86218 128.139 9.48441C128.067 9.2483 127.898 9.083 127.608 9.0594C127.318 9.01218 127.101 9.15384 126.98 9.36635C126.835 9.55523 126.714 9.74413 126.618 9.95664C126.449 10.3344 126.304 10.7122 126.111 11.0664C126.086 11.1608 126.062 11.2317 126.014 11.3025C125.99 11.2553 125.966 11.2317 125.966 11.2317C125.652 10.6414 125.362 10.0511 125.048 9.48441C125 9.43717 124.976 9.38995 124.951 9.34273C124.807 9.13024 124.638 9.01218 124.372 9.01218C124.13 9.03578 123.937 9.17746 123.816 9.38995C123.768 9.48441 123.768 9.55523 123.744 9.64969C123.647 10.4053 123.527 11.1608 123.43 11.9164C123.382 12.3414 123.358 12.7664 123.358 13.1914C123.333 13.2858 123.358 13.4039 123.406 13.4983C123.454 13.6872 123.599 13.8053 123.792 13.8289C124.034 13.8525 124.203 13.7817 124.275 13.5928C124.348 13.4511 124.372 13.3331 124.396 13.215C124.493 12.79 124.565 12.3886 124.638 11.9872C124.686 11.7511 124.71 11.5622 124.782 11.3025C124.831 11.3969 124.879 11.4678 124.927 11.5386C125.144 11.8219 125.362 12.1053 125.628 12.3414C125.893 12.5303 126.111 12.5067 126.328 12.2942C126.376 12.2469 126.4 12.2233 126.449 12.1761C126.666 11.8455 126.932 11.515 127.149 11.1844C127.197 11.1372 127.221 11.09 127.27 11.0428Z" fill="#3A3B7B"/>
<path d="M71.6273 10.4205C71.4594 10.8693 71.4274 11.1925 71.5049 11.4612C71.5905 11.8266 71.8127 11.9462 72.1142 11.8533C74.9507 11.1675 81.1706 13.1141 83.4734 13.6566C84.0164 13.7705 84.4582 13.0851 84.0877 12.4705C83.5468 11.8753 77.3297 9.32722 74.9575 9.18829C74.0277 9.13691 72.3653 8.90377 71.6273 10.4205Z" fill="#3A3B7B"/>
<path d="M95.9361 2.17175C96.2383 2.34234 96.4073 2.50508 96.4907 2.68691C96.615 2.92541 96.5494 3.09043 96.3407 3.17464C94.4657 4.06935 91.9707 7.92129 90.9636 9.24978C90.7195 9.55539 90.1563 9.3778 90.0713 8.87523C90.0888 8.30698 92.3004 4.12677 93.5348 2.98823C94.0198 2.5437 94.8212 1.67149 95.9361 2.17175Z" fill="#3A3B7B"/>
<path d="M81.0042 0.275761C81.3674 0.00813476 81.7448 -0.0856494 81.9375 0.0882738C84.7665 2.45375 86.2666 6.19968 87.1955 9.629C87.2305 9.7089 87.2327 9.82355 87.2047 9.94315C87.1931 10.0454 87.1168 10.1534 86.9954 10.2369C86.8658 10.3292 86.7543 10.3573 86.7018 10.2778C85.462 8.62893 78.3805 2.21355 81.0042 0.275761Z" fill="#3A3B7B"/>
<path d="M21.0987 41.2872C21.7767 40.7937 22.5138 40.3828 23.2938 40.0639C24.1098 39.8358 24.9797 39.8736 25.7718 40.1718C26.5638 40.47 27.2351 41.0122 27.684 41.7165C28.0855 42.419 28.2425 43.2301 28.1317 44.0276C28.0208 44.8249 27.6481 45.5655 27.0693 46.1378C26.6207 46.6017 26.1113 47.0058 25.5548 47.3398C23.0743 48.9066 20.5718 50.3874 18.0694 51.9542C17.5573 52.3463 17.0141 52.6981 16.445 53.0059C15.5793 53.428 14.5899 53.541 13.6479 53.3255C12.706 53.1101 11.8707 52.5793 11.2865 51.8255C10.8497 51.2916 10.4812 50.7079 10.1889 50.0869C7.81818 45.215 5.35966 40.3644 3.07673 35.4064C2.02307 33.2603 1.16698 30.792 0.332833 28.4097C-0.0280566 27.7175 -0.0985301 26.915 0.136418 26.1728C0.371367 25.4305 0.8932 24.8072 1.59092 24.4353C2.28864 24.0635 3.10718 23.9725 3.87248 24.1817C4.63778 24.3908 5.28947 24.8836 5.68891 25.5552C6.9167 27.1505 8.00356 28.8451 8.93769 30.6204C11.3084 34.9129 13.5694 39.2053 15.8523 43.3691C15.9852 43.5992 16.1318 43.8212 16.2913 44.0344C18.0096 43.328 19.6257 42.4045 21.0987 41.2872Z" fill="#3A3B7B"/>
<path d="M45.6107 39.7899C40.1889 45.9925 31.1011 44.4257 26.5352 36.4416C23.2864 30.7755 22.7157 21.4178 29.7841 15.5156C31.2934 14.2799 33.0983 13.4382 35.0303 13.0689C37.3992 12.7368 39.8148 13.1454 41.9319 14.2363C44.0489 15.3272 45.7591 17.0445 46.8182 19.1428C50.6815 26.0109 50.1328 34.7675 45.6107 39.7899ZM43.4156 25.324C42.8396 23.6363 41.6841 22.1954 40.1449 21.246C39.274 20.6391 38.2156 20.344 37.1483 20.4105C36.0807 20.4769 35.0693 20.9009 34.284 21.6109C31.1451 24.3367 30.4864 30.797 32.7693 34.6388C33.0604 35.2653 33.4876 35.822 34.0217 36.2701C34.5557 36.7181 35.1835 37.0468 35.8609 37.2327C36.5384 37.4188 37.2492 37.4578 37.9437 37.3472C38.6383 37.2364 39.2996 36.9786 39.8817 36.5919C41.5832 35.3019 42.8315 33.5258 43.453 31.5104C44.0747 29.4948 44.0386 27.34 43.3499 25.3456L43.4156 25.324Z" fill="#3A3B7B"/>
<path d="M67.7371 28.0279C67.1821 28.1446 66.6087 28.1516 66.0507 28.0484C65.4929 27.9451 64.9616 27.7339 64.4885 27.4271C64.0745 27.1955 63.7181 26.8772 63.4449 26.4948C63.1719 26.1125 62.9889 25.6758 62.9092 25.2159C62.8293 24.7563 62.8549 24.285 62.9835 23.836C63.1124 23.387 63.3416 22.9715 63.6544 22.6193C64.1993 21.9117 64.9728 21.4051 65.8495 21.1814C68.1383 20.5319 70.4944 20.136 72.8738 20.001C73.3966 19.9416 73.9263 19.9848 74.4316 20.1282C74.9371 20.2718 75.408 20.5124 75.8171 20.8364C76.2259 21.1602 76.5647 21.5608 76.8132 22.0144C77.0615 22.468 77.2149 22.9656 77.264 23.4779C77.9499 25.9945 78.0251 28.633 77.4835 31.1831C75.508 39.4246 68.7031 42.2576 61.064 39.6177C58.9197 38.9119 57.0396 37.5968 55.6641 35.8404C53.8294 33.7252 52.5286 31.2184 51.8665 28.5217C51.33 26.1202 51.3888 23.6283 52.038 21.2538C52.6871 18.8792 53.9079 16.6908 55.5982 14.8714C57.2023 12.894 59.2844 11.3377 61.6568 10.3428C63.1558 9.53491 64.9101 9.30521 66.5739 9.69892C66.9513 9.80105 67.2938 10.0001 67.5661 10.2753C67.8384 10.5505 68.0304 10.892 68.1223 11.2642C68.2141 11.6365 68.2023 12.0259 68.0884 12.3923C67.9742 12.7586 67.7622 13.0884 67.4739 13.3476C66.9257 13.8327 66.3301 14.2641 65.6958 14.6353C63.7442 15.8504 62.046 17.4162 60.6909 19.2497C59.8026 20.4362 59.1909 21.7987 58.8989 23.241C58.6068 24.6834 58.6416 26.1708 59.0007 27.5988C59.4985 29.5458 60.6032 31.2933 62.1616 32.5995C66.9908 36.8921 73.2689 32.7497 72.1713 26.8904C70.569 27.2768 69.164 27.6846 67.7371 28.0279Z" fill="#3A3B7B"/>
<path d="M97.2397 40.133C90.1056 44.4257 81.9837 40.133 80.2056 31.1188C78.9105 24.6801 81.369 15.6657 89.974 12.2317C91.8048 11.5168 93.7906 11.2658 95.7471 11.502C98.0978 11.9227 100.254 13.0542 101.912 14.7369C103.57 16.4196 104.646 18.5686 104.988 20.8812C106.437 28.5432 103.145 36.7205 97.2397 40.133ZM99.7203 25.6887C99.7181 23.9058 99.0731 22.1805 97.8984 20.8167C97.2705 19.9732 96.3627 19.3689 95.33 19.1065C94.297 18.8444 93.2033 18.9405 92.2348 19.3788C88.3715 21.0099 85.6495 26.9335 86.6374 31.2906C86.7128 31.9743 86.94 32.6337 87.3032 33.2226C87.6664 33.8115 88.1568 34.3158 88.7402 34.7001C89.3234 35.0843 89.9856 35.3395 90.6802 35.4476C91.3749 35.5554 92.0853 35.5138 92.7617 35.3255C94.8038 34.628 96.572 33.3244 97.8194 31.5967C99.067 29.869 99.7316 27.8035 99.7203 25.6887Z" fill="#3A3B7B"/>
<path d="M112.203 41.9361C112.096 42.7216 111.673 43.4331 111.029 43.9142C110.385 44.395 109.571 44.6061 108.768 44.5008C107.965 44.3955 107.237 43.9824 106.745 43.3525C106.253 42.7227 106.037 41.9274 106.145 41.1419C106.252 40.3564 106.675 39.6449 107.319 39.1639C107.963 38.6828 108.777 38.4719 109.58 38.5772C110.383 38.6825 111.111 39.0954 111.603 39.7253C112.095 40.3553 112.311 41.1506 112.203 41.9361ZM110.293 12.983C110.711 12.3595 111.323 11.8848 112.04 11.6295C112.755 11.3742 113.537 11.3521 114.267 11.5664C115.009 11.748 115.664 12.1732 116.124 12.771C116.583 13.3688 116.819 14.1029 116.791 14.8502C116.694 16.049 116.511 17.2395 116.242 18.413C115.518 22.3836 114.815 26.3541 114.047 30.2818C113.696 31.8486 113.235 33.351 112.73 34.9392C112.554 35.4357 112.261 35.8843 111.874 36.2484C111.633 36.5223 111.326 36.7324 110.98 36.8592C110.635 36.9863 110.262 37.0258 109.897 36.9745C109.531 36.9231 109.185 36.7825 108.89 36.5656C108.594 36.3486 108.36 36.0623 108.208 35.7333C107.947 35.1431 107.805 34.5089 107.791 33.8661C107.791 31.2047 107.791 28.5219 107.967 25.839C108.265 22.0103 108.852 18.2082 109.723 14.4639C109.825 13.9622 110.018 13.4825 110.293 13.0473V12.983Z" fill="#3A3B7B"/>
<path fill-rule="evenodd" clip-rule="evenodd" d="M11.8243 59.1832C11.5652 59.7489 11.4941 60.3796 11.6207 60.9865C11.705 61.7866 11.8901 62.5736 12.1717 63.3295C12.5234 64.2551 12.9169 65.1704 13.4021 66.2985C13.5136 66.5581 13.6302 66.829 13.7522 67.1142C14.4065 68.6425 15.2275 70.5957 16.3226 73.4224C16.6325 74.2254 16.9078 75.0351 17.1849 75.8502C17.2969 76.1796 17.4093 76.51 17.5243 76.8412C17.9366 78.0186 18.646 79.0764 19.5863 79.9148C19.9856 80.3756 20.5153 80.7113 21.1091 80.8792C21.7146 81.0504 22.3586 81.0396 22.9576 80.8481C23.5566 80.6565 24.0827 80.2931 24.4677 79.8051C24.8451 79.3266 25.0695 78.75 25.1131 78.1477C25.3579 76.9743 25.2744 75.7576 24.8708 74.6264C24.2304 72.7481 23.5008 70.8671 22.6595 69.0273L22.6557 69.0192C21.2717 66.1407 19.8649 63.2822 18.3915 60.4225L18.3804 60.4024C17.9491 59.6574 17.3886 58.9914 16.724 58.4343C16.2926 57.9371 15.6975 57.6017 15.0403 57.4861C14.369 57.3681 13.6768 57.487 13.0871 57.8218C12.5292 58.1333 12.087 58.6099 11.8243 59.1832Z" fill="#3A3B7B"/>
<path fill-rule="evenodd" clip-rule="evenodd" d="M32.9629 52.0951C30.7929 51.5456 28.5265 51.4655 26.3219 51.8605C24.6142 52.0249 22.9348 52.4101 21.7686 53.1729C21.1754 53.5612 20.6959 54.0597 20.4291 54.6933C20.1609 55.3305 20.1266 56.0591 20.3465 56.8709C20.7478 58.358 21.2689 59.8039 21.7882 61.2451L21.8724 61.4786L21.8744 61.4837C23.4381 65.6707 25.0167 69.8435 26.6096 74.0019C26.7953 74.6573 27.058 75.2894 27.3923 75.8857L27.3986 75.8967C27.8402 76.6375 28.4067 77.3001 29.074 77.8566C29.4078 78.1625 29.8205 78.3742 30.268 78.4689C30.72 78.5642 31.19 78.5366 31.6268 78.3886C32.0638 78.2408 32.4508 77.9784 32.7457 77.6301C33.0358 77.2875 33.2258 76.8748 33.2956 76.4356C33.5835 75.2423 33.4913 73.9914 33.031 72.8508C32.8875 72.4669 32.7748 72.0746 32.6561 71.6617C32.6165 71.524 32.5763 71.3839 32.534 71.2413C36.1803 69.8477 40.06 67.9738 41.4243 63.6146C41.9585 62.1081 42.0031 60.4769 41.5517 58.9445C41.0999 57.4105 40.173 56.0508 38.8988 55.0527C37.1644 53.6554 35.1385 52.6459 32.9629 52.0951ZM26.9478 57.442C27.0196 57.4217 27.0919 57.403 27.1644 57.3855C29.5383 57.0206 31.967 57.5068 34.0034 58.7542C34.9009 59.3645 35.2685 60.0425 35.3316 60.6949C35.3968 61.3666 35.147 62.0945 34.6452 62.7943C33.6969 64.116 31.9665 65.174 30.4033 65.3712C29.2638 62.8053 28.1066 60.1356 26.9478 57.442Z" fill="#3A3B7B"/>
<path d="M47.4302 47.3983C50.0145 46.2314 53.2156 46.0298 55.7206 46.8503C56.3514 47.0299 56.8987 47.4186 57.2689 47.9497C57.6368 48.4775 57.8065 49.1135 57.7498 49.7493C57.7461 50.1621 57.6425 50.5682 57.4475 50.9345C57.2491 51.3075 56.9617 51.6282 56.6097 51.8697C56.2577 52.111 55.8514 52.2662 55.4253 52.3216C54.9989 52.3772 54.5654 52.3316 54.1609 52.1885L54.1302 52.1777L54.1013 52.1628C53.8944 52.0569 53.6746 51.9772 53.4472 51.9253L53.4329 51.9222C51.6707 51.4645 50.0086 52.2228 49.4015 53.1545C49.1119 53.5987 49.076 54.0471 49.3171 54.4551C49.5754 54.8919 50.2089 55.3821 51.4907 55.7316C51.8432 55.8262 52.2046 55.9175 52.5711 56.0103C53.5847 56.2669 54.6381 56.5335 55.6567 56.9029L55.6605 56.9044C60.3596 58.6525 62.1094 62.273 61.5104 65.6784C60.9178 69.0459 58.0414 72.1107 53.7158 72.8336C52.1418 73.1747 50.5038 73.1083 48.9639 72.6409C47.4201 72.172 46.0285 71.3165 44.9275 70.1589L44.8988 70.1288C44.5512 69.6926 44.3174 69.1803 44.2138 68.6367C44.1184 68.1461 44.1687 67.6391 44.3583 67.1754C44.5468 66.7144 44.8656 66.3155 45.2771 66.0248C45.7117 65.6953 46.2356 65.4976 46.7841 65.4563C47.3306 65.4153 47.8775 65.5314 48.3575 65.7903C48.8368 66.0167 49.2827 66.3055 49.6829 66.6491L49.6905 66.6553C50.3985 67.2884 51.2551 67.4534 52.0765 67.3006C52.9099 67.1456 53.6935 66.6634 54.1976 66.0237C54.6983 65.388 54.8993 64.6329 54.6608 63.8999C54.4207 63.1615 53.6989 62.3342 52.1129 61.6425C51.6984 61.4704 51.2685 61.3316 50.8214 61.1965C50.7008 61.16 50.5782 61.1238 50.4541 61.0869C50.1235 60.9888 49.7833 60.8878 49.4497 60.7764C49.2199 60.6998 48.992 60.6273 48.7663 60.5553C48.1495 60.3589 47.548 60.1674 46.9692 59.9106C45.7095 59.4912 44.6212 58.686 43.8662 57.6141C43.1081 56.5379 42.7267 55.2509 42.7786 53.9453C42.7827 50.7637 44.8321 48.5717 47.4302 47.3983Z" fill="#3A3B7B"/>
<path d="M80.1932 47.0594C79.6921 46.8201 79.138 46.7065 78.581 46.7288C78.0237 46.7513 77.481 46.9089 77.0018 47.1878C76.5256 47.4646 76.1269 47.8523 75.8411 48.3164C75.5792 48.7072 75.3979 49.1443 75.3075 49.6032C75.2171 50.0618 75.2193 50.5331 75.3137 50.9905C75.4071 51.5785 75.5105 52.1503 75.6127 52.7142C75.7819 53.6473 75.9464 54.5595 76.0551 55.4895L76.0591 55.5131C76.3063 56.9716 76.4358 58.4468 76.4474 59.925L76.4485 59.946C76.533 61.5424 75.9766 63.1078 74.8988 64.3099L74.8817 64.3312C74.531 64.7706 74.0621 65.1061 73.5273 65.2999C72.9927 65.4938 72.4136 65.5383 71.8545 65.4286C71.2954 65.3189 70.7787 65.0593 70.3619 64.6788C69.9451 64.2983 69.6445 63.8104 69.4944 63.2727C69.1741 62.1393 68.9887 60.9734 68.9416 59.7985L69.4887 51.2819C69.4968 51.1707 69.506 51.0566 69.5154 50.9414C69.5362 50.6827 69.5576 50.4193 69.5664 50.1735C69.5793 49.812 69.5682 49.4401 69.4821 49.0881C69.3939 48.7284 69.2262 48.3862 68.9287 48.0948C68.6342 47.8063 68.2365 47.5935 67.7362 47.4486C66.8314 47.1925 66.0663 47.2006 65.4288 47.4652C64.7909 47.7297 64.3539 48.2209 64.0446 48.7882C63.7377 49.3508 63.5406 50.0169 63.3915 50.684C63.2808 51.179 63.1919 51.6987 63.1074 52.1934C63.0781 52.3638 63.0496 52.5312 63.0207 52.6937L63.02 52.6985C62.5678 55.4113 62.4333 58.1656 62.6188 60.9082C62.6534 62.3904 62.9695 63.8533 63.5512 65.2224C64.2075 66.9889 65.3962 68.5195 66.9604 69.6121C68.528 70.7068 70.3985 71.3101 72.3245 71.342C74.2504 71.3738 76.1409 70.8328 77.7454 69.7906C79.3473 68.75 80.5889 67.2585 81.3057 65.5135C82.3084 63.2906 82.7793 60.8731 82.6821 58.4453C82.6232 56.6729 82.5246 54.8868 82.4265 53.1098C82.3782 52.2381 82.3302 51.3683 82.2871 50.5038C82.2654 49.6369 81.973 48.7973 81.4491 48.0975C81.1249 47.6552 80.6934 47.2984 80.1932 47.0594Z" fill="#3A3B7B"/>
<path d="M97.9294 60.4134C97.8786 60.4766 97.825 60.5419 97.7691 60.6099C97.3615 58.3109 96.9837 56.0127 96.6054 53.7111C96.4697 52.8852 96.3333 52.0559 96.1962 51.229L96.1807 51.1367L96.1307 51.057C96.0362 50.907 96.0268 50.7599 96.0268 50.4462V50.4099L96.0211 50.374C95.9188 49.7262 95.6191 49.1233 95.1612 48.6443C94.7047 48.1666 94.1117 47.8341 93.4595 47.6898C92.8084 47.5328 92.1241 47.5674 91.4928 47.7894C90.8633 48.0109 90.3145 48.4089 89.915 48.9335C89.5829 49.3361 89.3106 49.7827 89.1067 50.2599C88.6437 51.2879 88.1766 52.3184 87.7083 53.3517L87.7002 53.3696C86.531 55.9492 85.354 58.5462 84.2111 61.1636L84.2076 61.1721C83.5061 62.8692 82.9269 64.6575 82.3498 66.4402C82.2346 66.7961 82.1193 67.1517 82.0031 67.5065C81.7948 68.069 81.7036 68.6666 81.7349 69.264C81.697 69.7988 81.8279 70.3323 82.1103 70.7923C82.3982 71.2617 82.8295 71.631 83.3433 71.8484C83.8879 72.0819 84.4967 72.1314 85.0734 71.9893C85.6489 71.8473 86.1599 71.5226 86.5261 71.066C86.9937 70.5036 87.3959 69.8903 87.724 69.2404C88.6921 67.3041 89.6173 65.3443 90.5383 63.3929C90.8947 62.6382 91.241 61.9622 91.635 61.226C91.662 61.3168 91.6896 61.4053 91.7182 61.4941C92.1311 63.2715 92.8281 64.9739 93.7833 66.5391C93.9641 66.8706 94.2159 67.1604 94.5215 67.3885C94.8308 67.6193 95.1877 67.7813 95.5675 67.8636C95.9473 67.9459 96.3409 67.9463 96.7208 67.8647C97.1003 67.7833 97.4583 67.6212 97.7678 67.3914L98.3802 66.9431L103.134 63.0281L102.853 64.7797C102.467 67.1874 102.084 69.5751 101.677 71.9633C101.411 73.0218 101.411 74.1275 101.678 75.1856C101.794 75.7812 102.089 76.3294 102.524 76.7605C102.964 77.1952 103.527 77.4904 104.14 77.6083C104.754 77.7259 105.389 77.6607 105.964 77.4209C106.531 77.1847 107.013 76.7896 107.35 76.2861C108.134 75.3353 108.621 74.1842 108.755 72.9697C108.957 71.2547 109.185 69.5164 109.413 67.7785C109.676 65.7755 109.939 63.7729 110.16 61.8088L110.161 61.8028C110.375 59.6528 110.478 57.4939 110.471 55.3338C110.518 54.6512 110.344 53.9712 109.973 53.39C109.602 52.8068 109.051 52.3534 108.401 52.094C107.724 51.7932 106.966 51.7127 106.239 51.8648C105.517 52.0158 104.864 52.388 104.373 52.9272C103.496 53.7201 102.674 54.5686 101.911 55.4671L101.906 55.4732C101.073 56.4881 100.245 57.5228 99.4233 58.551C98.9235 59.176 98.4252 59.7995 97.9294 60.4134Z" fill="#3A3B7B"/>
</svg>
