<svg width="314" height="58" viewBox="0 0 314 58" fill="none" xmlns="http://www.w3.org/2000/svg">
<path d="M21.155 48.5352C15.108 54.5823 4.86666 54.5582 2.00654 46.4989C1.44657 44.921 0.998849 43.2986 0.669554 41.6431C-0.674951 34.8837 0.0150978 27.8776 2.65245 21.5104C5.28979 15.1434 9.75596 9.70129 15.4862 5.87246C21.2165 2.04363 27.9535 -2.95215e-07 34.8452 0C41.7369 2.95215e-07 48.4738 2.04363 54.204 5.87246C59.9343 9.70129 64.4005 15.1434 67.0378 21.5106C69.6752 27.8776 70.3651 34.8837 69.0207 41.6431C68.6914 43.2986 68.2437 44.921 67.6836 46.4989C64.8235 54.5582 54.5823 54.5823 48.5352 48.5352L39.2008 39.2008C38.309 38.309 38.4011 36.8382 38.6471 35.6013C38.7966 34.8494 38.7198 34.07 38.4264 33.3617C38.133 32.6533 37.6362 32.0479 36.9988 31.622C36.3613 31.1961 35.6119 30.9687 34.8452 30.9687C34.0785 30.9687 33.3291 31.1961 32.6916 31.622C32.0539 32.0479 31.5572 32.6533 31.2638 33.3617C30.9704 34.07 30.8936 34.8494 31.0433 35.6013C31.2893 36.8382 31.3812 38.309 30.4894 39.2008L21.155 48.5352Z" fill="url(#paint0_linear_1197_14011)"/>
<path d="M98.0394 40.1694H107.406V45.689H90.8892V16.3354H98.0394V40.1694Z" fill="#3A3B7B"/>
<path d="M120.183 46.0233C117.897 46.0233 115.834 45.5355 113.994 44.5598C112.182 43.5842 110.747 42.1904 109.687 40.3784C108.656 38.5664 108.14 36.4479 108.14 34.0225C108.14 31.6253 108.67 29.5205 109.729 27.7086C110.788 25.8689 112.238 24.4611 114.078 23.4854C115.918 22.5098 117.98 22.022 120.266 22.022C122.552 22.022 124.615 22.5098 126.455 23.4854C128.295 24.4611 129.744 25.8689 130.803 27.7086C131.863 29.5205 132.392 31.6253 132.392 34.0225C132.392 36.4199 131.849 38.5385 130.762 40.3784C129.702 42.1904 128.239 43.5842 126.371 44.5598C124.531 45.5355 122.468 46.0233 120.183 46.0233ZM120.183 39.8347C121.548 39.8347 122.705 39.3331 123.653 38.3295C124.629 37.3259 125.117 35.8904 125.117 34.0225C125.117 32.1549 124.643 30.7193 123.695 29.7158C122.775 28.7122 121.632 28.2104 120.266 28.2104C118.872 28.2104 117.716 28.7122 116.796 29.7158C115.876 30.6914 115.416 32.1269 115.416 34.0225C115.416 35.8904 115.862 37.3259 116.754 38.3295C117.674 39.3331 118.817 39.8347 120.183 39.8347Z" fill="#3A3B7B"/>
<path d="M143.795 22.022C145.44 22.022 146.876 22.3565 148.102 23.0256C149.357 23.6944 150.319 24.5727 150.988 25.6597V22.3565H158.138V45.6468C158.138 47.7933 157.706 49.7309 156.842 51.459C156.005 53.2153 154.709 54.6091 152.953 55.6404C151.225 56.6719 149.064 57.1877 146.472 57.1877C143.015 57.1877 140.213 56.3654 138.067 54.7207C135.921 53.1037 134.694 50.9015 134.387 48.1139H141.454C141.677 49.0059 142.207 49.7029 143.043 50.2047C143.879 50.7342 144.911 50.9991 146.137 50.9991C147.615 50.9991 148.785 50.567 149.65 49.7029C150.542 48.8666 150.988 47.5147 150.988 45.6468V42.3437C150.291 43.4307 149.329 44.3229 148.102 45.0197C146.876 45.6888 145.44 46.0233 143.795 46.0233C141.872 46.0233 140.13 45.5355 138.569 44.5598C137.008 43.5562 135.767 42.1484 134.847 40.3365C133.955 38.4968 133.509 36.3782 133.509 33.9808C133.509 31.5834 133.955 29.4788 134.847 27.6669C135.767 25.8549 137.008 24.4611 138.569 23.4854C140.13 22.5098 141.872 22.022 143.795 22.022ZM150.988 34.0225C150.988 32.2385 150.486 30.8307 149.482 29.7994C148.507 28.7681 147.308 28.2523 145.886 28.2523C144.465 28.2523 143.252 28.7681 142.248 29.7994C141.273 30.803 140.785 32.1968 140.785 33.9808C140.785 35.7648 141.273 37.1866 142.248 38.2459C143.252 39.2772 144.465 39.793 145.886 39.793C147.308 39.793 148.507 39.2772 149.482 38.2459C150.486 37.2143 150.988 35.8068 150.988 34.0225Z" fill="#3A3B7B"/>
<path d="M172.677 46.0233C170.391 46.0233 168.329 45.5355 166.489 44.5598C164.677 43.5842 163.241 42.1904 162.182 40.3784C161.151 38.5664 160.635 36.4479 160.635 34.0225C160.635 31.6253 161.164 29.5205 162.224 27.7086C163.283 25.8689 164.733 24.4611 166.572 23.4854C168.412 22.5098 170.475 22.022 172.761 22.022C175.047 22.022 177.11 22.5098 178.949 23.4854C180.789 24.4611 182.239 25.8689 183.298 27.7086C184.357 29.5205 184.887 31.6253 184.887 34.0225C184.887 36.4199 184.343 38.5385 183.256 40.3784C182.197 42.1904 180.733 43.5842 178.866 44.5598C177.026 45.5355 174.963 46.0233 172.677 46.0233ZM172.677 39.8347C174.043 39.8347 175.2 39.3331 176.148 38.3295C177.124 37.3259 177.611 35.8904 177.611 34.0225C177.611 32.1549 177.137 30.7193 176.19 29.7158C175.27 28.7122 174.127 28.2104 172.761 28.2104C171.367 28.2104 170.21 28.7122 169.29 29.7158C168.37 30.6914 167.91 32.1269 167.91 34.0225C167.91 35.8904 168.356 37.3259 169.249 38.3295C170.168 39.3331 171.311 39.8347 172.677 39.8347Z" fill="#3A3B7B"/>
<path d="M191.022 19.9312C189.767 19.9312 188.736 19.5688 187.928 18.844C187.147 18.0914 186.757 17.1714 186.757 16.0843C186.757 14.9692 187.147 14.0493 187.928 13.3245C188.736 12.5719 189.767 12.1956 191.022 12.1956C192.248 12.1956 193.252 12.5719 194.032 13.3245C194.841 14.0493 195.245 14.9692 195.245 16.0843C195.245 17.1714 194.841 18.0914 194.032 18.844C193.252 19.5688 192.248 19.9312 191.022 19.9312ZM194.576 22.3564V45.6887H187.426V22.3564H194.576Z" fill="#3A3B7B"/>
<path d="M205.653 25.6597C206.35 24.5727 207.312 23.6944 208.539 23.0256C209.766 22.3565 211.202 22.022 212.846 22.022C214.77 22.022 216.511 22.5098 218.072 23.4854C219.634 24.4611 220.861 25.8549 221.752 27.6669C222.671 29.4788 223.133 31.5834 223.133 33.9808C223.133 36.3782 222.671 38.4968 221.752 40.3365C220.861 42.1484 219.634 43.5562 218.072 44.5598C216.511 45.5355 214.77 46.0233 212.846 46.0233C211.228 46.0233 209.794 45.6888 208.539 45.0197C207.312 44.3506 206.35 43.4866 205.653 42.4273V56.8113H198.503V22.3565H205.653V25.6597ZM215.857 33.9808C215.857 32.1968 215.355 30.803 214.35 29.7994C213.374 28.7681 212.163 28.2523 210.714 28.2523C209.292 28.2523 208.079 28.7681 207.075 29.7994C206.101 30.8307 205.613 32.2385 205.613 34.0225C205.613 35.8068 206.101 37.2143 207.075 38.2459C208.079 39.2772 209.292 39.793 210.714 39.793C212.135 39.793 213.348 39.2772 214.35 38.2459C215.355 37.1866 215.857 35.7648 215.857 33.9808Z" fill="#3A3B7B"/>
<path d="M235.121 46.0233C233.086 46.0233 231.273 45.6748 229.684 44.978C228.096 44.281 226.84 43.3333 225.921 42.1345C225.002 40.9079 224.485 39.5421 224.374 38.0367H231.441C231.524 38.8451 231.901 39.5002 232.569 40.0019C233.239 40.5037 234.062 40.7546 235.038 40.7546C235.929 40.7546 236.611 40.5874 237.085 40.2528C237.587 39.8906 237.838 39.4305 237.838 38.873C237.838 38.204 237.49 37.7161 236.793 37.4095C236.097 37.075 234.967 36.7127 233.406 36.3223C231.733 35.9321 230.34 35.5279 229.224 35.1097C228.11 34.6638 227.148 33.9808 226.34 33.0609C225.53 32.1132 225.127 30.8447 225.127 29.2559C225.127 27.9178 225.49 26.7052 226.215 25.618C226.966 24.503 228.053 23.6248 229.475 22.9836C230.925 22.3425 232.64 22.022 234.618 22.022C237.545 22.022 239.845 22.7467 241.518 24.1962C243.219 25.6459 244.195 27.5693 244.446 29.9667H237.838C237.727 29.1583 237.364 28.5172 236.751 28.0431C236.166 27.5693 235.386 27.3323 234.41 27.3323C233.574 27.3323 232.932 27.4996 232.486 27.8341C232.041 28.1407 231.818 28.5728 231.818 29.1303C231.818 29.7994 232.166 30.3012 232.863 30.6357C233.588 30.9702 234.702 31.3048 236.208 31.6391C237.935 32.0852 239.343 32.5313 240.43 32.9772C241.518 33.3954 242.465 34.0922 243.273 35.068C244.11 36.0157 244.543 37.298 244.571 38.9149C244.571 40.2808 244.181 41.5073 243.399 42.5946C242.648 43.6538 241.546 44.4902 240.096 45.1033C238.675 45.7167 237.016 46.0233 235.121 46.0233Z" fill="#3A3B7B"/>
<path d="M270.73 22.3567V45.6889H263.58V42.5111C262.855 43.5424 261.865 44.3788 260.612 45.0199C259.384 45.6333 258.02 45.9398 256.513 45.9398C254.729 45.9398 253.153 45.5496 251.789 44.769C250.422 43.9606 249.363 42.8037 248.611 41.2985C247.858 39.7932 247.481 38.0231 247.481 35.988V22.3567H254.589V35.0263C254.589 36.5874 254.994 37.7999 255.802 38.6642C256.61 39.5283 257.698 39.9604 259.064 39.9604C260.458 39.9604 261.559 39.5283 262.367 38.6642C263.175 37.7999 263.58 36.5874 263.58 35.0263V22.3567H270.73Z" fill="#3A3B7B"/>
<path d="M304.384 22.106C307.282 22.106 309.582 22.984 311.283 24.7403C313.01 26.4964 313.875 28.9355 313.875 32.0576V45.6891H306.767V33.0195C306.767 31.5141 306.362 30.3572 305.554 29.5488C304.773 28.7125 303.687 28.2944 302.292 28.2944C300.899 28.2944 299.797 28.7125 298.989 29.5488C298.21 30.3572 297.819 31.5141 297.819 33.0195V45.6891H290.709V33.0195C290.709 31.5141 290.306 30.3572 289.498 29.5488C288.716 28.7125 287.629 28.2944 286.236 28.2944C284.843 28.2944 283.741 28.7125 282.933 29.5488C282.151 30.3572 281.763 31.5141 281.763 33.0195V45.6891H274.612V22.3569H281.763V25.2838C282.488 24.3081 283.435 23.5415 284.606 22.984C285.776 22.3986 287.101 22.106 288.577 22.106C290.334 22.106 291.896 22.4822 293.261 23.2349C294.654 23.9876 295.741 25.0608 296.523 26.4546C297.331 25.1722 298.432 24.1269 299.826 23.3185C301.219 22.5101 302.74 22.106 304.384 22.106Z" fill="#3A3B7B"/>
<defs>
<linearGradient id="paint0_linear_1197_14011" x1="66.5184" y1="17.4226" x2="4.66837" y2="17.4226" gradientUnits="userSpaceOnUse">
<stop stop-color="#64C2DB"/>
<stop offset="0.510417" stop-color="#7476ED"/>
<stop offset="1" stop-color="#E56F8C"/>
</linearGradient>
</defs>
</svg>
