<svg width="178" height="81" viewBox="0 0 178 81" fill="none" xmlns="http://www.w3.org/2000/svg">
<path d="M96.4194 71.3569H101.957V50.4704H96.4194V71.3569ZM96.4194 47.2132H101.957V42.2461H96.4194V47.2132Z" fill="black"/>
<path d="M105.524 78.1972H111.062V68.9958H111.143C112.324 70.7871 114.237 71.9679 117.169 71.9679C122.543 71.9679 126.207 67.6929 126.207 60.9343C126.207 54.4198 122.665 49.9006 117.128 49.9006C114.278 49.9006 112.324 51.2442 110.98 53.0762H110.858V50.4707H105.524V78.1972ZM115.988 67.3671C112.69 67.3671 110.939 64.8836 110.939 61.0971C110.939 57.3514 112.324 54.3791 115.784 54.3791C119.205 54.3791 120.589 57.1477 120.589 61.0971C120.589 65.0464 118.797 67.3671 115.988 67.3671Z" fill="black"/>
<path d="M137.253 71.9679C142.464 71.9679 146.047 69.4435 146.047 65.2499C146.047 60.3642 142.179 59.3872 138.678 58.6543C135.705 58.0436 132.937 57.8806 132.937 56.0892C132.937 54.5828 134.362 53.7684 136.52 53.7684C138.881 53.7684 140.306 54.5828 140.55 56.8221H145.558C145.151 52.6285 142.098 49.9006 136.601 49.9006C131.838 49.9006 128.092 52.0585 128.092 56.5777C128.092 61.1378 131.756 62.1557 135.502 62.8886C138.352 63.4584 140.998 63.6621 140.998 65.6572C140.998 67.1229 139.614 68.0592 137.171 68.0592C134.688 68.0592 132.977 67.0007 132.611 64.5985H127.481C127.807 69.0365 131.186 71.9679 137.253 71.9679Z" fill="black"/>
<path d="M167.07 71.3572V50.4707H161.533V62.5221C161.533 65.2907 159.945 67.245 157.339 67.245C154.978 67.245 153.878 65.9014 153.878 63.4584V50.4707H148.382V64.395C148.382 68.9549 150.988 71.9272 155.629 71.9272C158.561 71.9272 160.189 70.8278 161.614 68.9142H161.736V71.3572H167.07Z" fill="black"/>
<path d="M170.651 71.3571H176.189V59.2241C176.189 56.4556 177.695 54.6642 179.934 54.6642C181.97 54.6642 183.151 55.8855 183.151 58.2471V71.3571H188.688V59.2241C188.688 56.4556 190.113 54.6642 192.434 54.6642C194.469 54.6642 195.65 55.8855 195.65 58.2471V71.3571H201.187V57.3107C201.187 52.7506 198.704 49.9006 194.307 49.9006C191.66 49.9006 189.462 51.2849 188.037 53.5649H187.955C186.937 51.3663 184.82 49.9006 182.174 49.9006C179.283 49.9006 177.247 51.3663 176.107 53.28H175.985V50.4707H170.651V71.3571Z" fill="black"/>
<path d="M96.5005 35.5832H102.038V6.47241H96.5005V35.5832Z" fill="black"/>
<path d="M115.577 36.1942C122.051 36.1942 126.489 31.3899 126.489 25.1605C126.489 18.9312 122.051 14.127 115.577 14.127C109.104 14.127 104.666 18.9312 104.666 25.1605C104.666 31.3899 109.104 36.1942 115.577 36.1942ZM115.577 31.9599C112.157 31.9599 110.284 29.232 110.284 25.1605C110.284 21.0891 112.157 18.3205 115.577 18.3205C118.956 18.3205 120.87 21.0891 120.87 25.1605C120.87 29.232 118.956 31.9599 115.577 31.9599Z" fill="black"/>
<path d="M138.264 42.7086C141.358 42.7086 144.045 41.9757 145.796 40.347C147.343 38.922 148.28 36.927 148.28 33.9956V14.6969H142.946V16.8955H142.865C141.602 15.1448 139.689 14.127 137.083 14.127C131.79 14.127 128.044 18.117 128.044 24.3463C128.044 30.657 132.605 34.3212 137.246 34.3212C139.893 34.3212 141.48 33.2628 142.702 31.8785H142.824V34.1584C142.824 37.0084 141.318 38.5148 138.182 38.5148C135.617 38.5148 134.437 37.4971 133.989 36.1942H128.492C129.062 40.2656 132.564 42.7086 138.264 42.7086ZM138.182 29.8835C135.332 29.8835 133.459 27.807 133.459 24.2649C133.459 20.7635 135.332 18.5648 138.142 18.5648C141.48 18.5648 143.109 21.1705 143.109 24.2242C143.109 27.3184 141.684 29.8835 138.182 29.8835Z" fill="black"/>
<path d="M161.739 36.1942C168.212 36.1942 172.65 31.3899 172.65 25.1605C172.65 18.9312 168.212 14.127 161.739 14.127C155.265 14.127 150.827 18.9312 150.827 25.1605C150.827 31.3899 155.265 36.1942 161.739 36.1942ZM161.739 31.9599C158.319 31.9599 156.446 29.232 156.446 25.1605C156.446 21.0891 158.319 18.3205 161.739 18.3205C165.118 18.3205 167.032 21.0891 167.032 25.1605C167.032 29.232 165.118 31.9599 161.739 31.9599Z" fill="black"/>
<path d="M177.504 27.6032H201.444V22.8396H177.504V27.6032Z" fill="black"/>
<path fill-rule="evenodd" clip-rule="evenodd" d="M40.5 0C62.8675 0 81 18.1325 81 40.5C81 62.8675 62.8675 81 40.5 81C18.1325 81 0 62.8675 0 40.5C0 18.1325 18.1325 0 40.5 0ZM39.0361 3.03059C34.4159 3.68082 30.0164 7.39344 26.6012 13.6027C25.6106 15.4038 24.7167 17.3937 23.9377 19.5421C28.5814 18.3752 33.6826 17.6872 39.0361 17.5808V3.03059ZM20.5149 20.5149C21.4834 17.4749 22.6684 14.678 24.0359 12.1918C25.7288 9.1137 27.738 6.4556 30.0018 4.41403C17.692 7.98909 7.98908 17.692 4.41404 30.0018C6.45559 27.738 9.1137 25.7288 12.1918 24.0359C14.678 22.6685 17.4749 21.4834 20.5149 20.5149ZM19.542 23.9377C18.3752 28.5815 17.6872 33.6826 17.5808 39.0361H3.03058C3.68083 34.4157 7.39345 30.0162 13.6027 26.6012C15.4038 25.6106 17.3937 24.7167 19.542 23.9377ZM20.5092 39.0361C20.6301 33.1938 21.4711 27.7089 22.8626 22.8627C27.7089 21.4711 33.194 20.6299 39.0361 20.509V26.8329C36.8566 32.4126 32.4113 36.8574 26.8314 39.0361H20.5092ZM17.5808 41.9639H3.03058C3.68083 46.5843 7.39345 50.9836 13.6027 54.3988C15.4038 55.3894 17.3937 56.2833 19.542 57.0623C18.3752 52.4185 17.6872 47.3174 17.5808 41.9639ZM22.8626 58.1373C21.4711 53.2911 20.6301 47.8062 20.5092 41.9639H26.8314C32.4113 44.1426 36.8568 48.5874 39.0361 54.1671V60.491C33.194 60.3701 27.7089 59.5289 22.8626 58.1373ZM20.5149 60.4851C17.4749 59.5166 14.678 58.3315 12.1918 56.9641C9.1137 55.2712 6.45559 53.262 4.41404 50.9982C7.98908 63.308 17.692 73.011 30.0018 76.5859C27.738 74.5443 25.7288 71.8863 24.0359 68.8081C22.6684 66.322 21.4834 63.5251 20.5149 60.4851ZM39.0361 77.9694C34.4159 77.3192 30.0164 73.6065 26.6012 67.3973C25.6106 65.5962 24.7167 63.6063 23.9377 61.4579C28.5814 62.6247 33.6826 63.3128 39.0361 63.4192V77.9694ZM50.9982 76.5859C53.2619 74.5443 55.2711 71.8863 56.9643 68.8081C58.3315 66.322 59.5166 63.5251 60.4851 60.4851C63.5251 59.5166 66.322 58.3315 68.8083 56.9641C71.8863 55.2712 74.5445 53.262 76.5859 50.9982C73.011 63.308 63.308 73.011 50.9982 76.5859ZM57.0623 61.4579C56.2832 63.6063 55.3894 65.5962 54.3988 67.3973C50.9838 73.6065 46.5843 77.3192 41.9639 77.9694V63.4192C47.3174 63.3128 52.4185 62.6247 57.0623 61.4579ZM61.4579 57.0623C63.6063 56.2833 65.5962 55.3894 67.3973 54.3988C73.6065 50.9836 77.3192 46.5843 77.9694 41.9639H63.4191C63.3128 47.3174 62.6247 52.4185 61.4579 57.0623ZM60.491 41.9639C60.3701 47.8062 59.5289 53.2911 58.1373 58.1373C53.2911 59.5289 47.8062 60.3701 41.9639 60.491V54.1718C44.1426 48.5901 48.5889 44.1432 54.1704 41.9639H60.491ZM63.4191 39.0361H77.9694C77.3192 34.4157 73.6065 30.0162 67.3973 26.6012C65.5962 25.6106 63.6063 24.7167 61.4579 23.9377C62.6247 28.5815 63.3128 33.6826 63.4191 39.0361ZM58.1373 22.8627C59.5289 27.7089 60.3701 33.1938 60.491 39.0361H54.1704C48.5889 36.8568 44.1426 32.4099 41.9639 26.8282V20.509C47.8062 20.6299 53.2911 21.4711 58.1373 22.8627ZM60.4851 20.5149C63.5251 21.4834 66.322 22.6685 68.8083 24.0359C71.8863 25.7288 74.5445 27.738 76.5859 30.0018C73.011 17.692 63.308 7.98909 50.9982 4.41403C53.2619 6.4556 55.2711 9.1137 56.9643 12.1918C58.3315 14.678 59.5166 17.4749 60.4851 20.5149ZM41.9639 3.03059C46.5843 3.68082 50.9838 7.39344 54.3988 13.6027C55.3894 15.4039 56.2832 17.3937 57.0623 19.5421C52.4185 18.3752 47.3174 17.6872 41.9639 17.5808V3.03059Z" fill="black"/>
</svg>
