<svg width="321" height="59" viewBox="0 0 321 59" fill="none" xmlns="http://www.w3.org/2000/svg">
<path d="M179.258 43.5477H186.136V17.6045H179.258V43.5477ZM179.258 13.5589H186.136V7.38916H179.258V13.5589Z" fill="black"/>
<path d="M190.568 52.0434H197.446V40.6142H197.547C199.013 42.8394 201.39 44.306 205.031 44.306C211.707 44.306 216.258 38.996 216.258 30.6012C216.258 22.5096 211.859 16.8962 204.981 16.8962C201.441 16.8962 199.013 18.5652 197.345 20.8408H197.193V17.6042H190.568V52.0434ZM203.565 38.5914C199.469 38.5914 197.294 35.5066 197.294 30.8034C197.294 26.1508 199.013 22.4592 203.312 22.4592C207.56 22.4592 209.279 25.898 209.279 30.8034C209.279 35.7088 207.054 38.5914 203.565 38.5914Z" fill="black"/>
<path d="M229.977 44.306C236.451 44.306 240.901 41.1706 240.901 35.9616C240.901 29.8932 236.097 28.6794 231.747 27.7692C228.055 27.0106 224.617 26.8082 224.617 24.5832C224.617 22.712 226.387 21.7006 229.067 21.7006C232.001 21.7006 233.771 22.712 234.073 25.4934H240.294C239.789 20.2846 235.995 16.8962 229.169 16.8962C223.251 16.8962 218.599 19.5766 218.599 25.19C218.599 30.854 223.151 32.1182 227.803 33.0286C231.343 33.7366 234.63 33.9894 234.63 36.4674C234.63 38.288 232.911 39.4512 229.877 39.4512C226.791 39.4512 224.667 38.1362 224.213 35.1526H217.841C218.245 40.6648 222.443 44.306 229.977 44.306Z" fill="black"/>
<path d="M267.013 43.5477V17.6045H260.135V32.5737C260.135 36.0125 258.163 38.4399 254.927 38.4399C251.993 38.4399 250.629 36.7711 250.629 33.7369V17.6045H243.801V34.8999C243.801 40.5639 247.037 44.2557 252.803 44.2557C256.445 44.2557 258.467 42.8903 260.237 40.5135H260.389V43.5477H267.013Z" fill="black"/>
<path d="M271.462 43.5474H278.34V28.4772C278.34 25.0382 280.211 22.8132 282.993 22.8132C285.521 22.8132 286.988 24.3302 286.988 27.2634V43.5474H293.865V28.4772C293.865 25.0382 295.635 22.8132 298.518 22.8132C301.047 22.8132 302.513 24.3302 302.513 27.2634V43.5474H309.391V26.1002C309.391 20.4362 306.306 16.8962 300.844 16.8962C297.557 16.8962 294.826 18.6156 293.056 21.4476H292.955C291.691 18.7168 289.061 16.8962 285.774 16.8962C282.183 16.8962 279.655 18.7168 278.239 21.0936H278.087V17.6042H271.462V43.5474Z" fill="black"/>
<path d="M0 43.5477H6.87771V7.38916H0V43.5477Z" fill="black"/>
<path d="M23.6948 44.306C31.7356 44.306 37.2479 38.3386 37.2479 30.6012C37.2479 22.8636 31.7356 16.8962 23.6948 16.8962C15.6539 16.8962 10.1416 22.8636 10.1416 30.6012C10.1416 38.3386 15.6539 44.306 23.6948 44.306ZM23.6948 39.0466C19.4468 39.0466 17.1204 35.6582 17.1204 30.6012C17.1204 25.544 19.4468 22.1052 23.6948 22.1052C27.8922 22.1052 30.269 25.544 30.269 30.6012C30.269 35.6582 27.8922 39.0466 23.6948 39.0466Z" fill="black"/>
<path d="M51.8741 52.3974C55.7175 52.3974 59.0553 51.4872 61.2297 49.4642C63.1515 47.6942 64.3147 45.2162 64.3147 41.5752V17.6042H57.6899V20.3352H57.5887C56.0209 18.1606 53.6441 16.8962 50.4075 16.8962C43.8333 16.8962 39.1807 21.8522 39.1807 29.5896C39.1807 37.4282 44.8447 41.9796 50.6098 41.9796C53.8969 41.9796 55.8693 40.6648 57.3863 38.9454H57.5381V41.7774C57.5381 45.3174 55.6669 47.1886 51.7729 47.1886C48.5869 47.1886 47.1203 45.9242 46.5641 44.306H39.7369C40.4449 49.3632 44.7941 52.3974 51.8741 52.3974ZM51.7729 36.4674C48.2329 36.4674 45.9067 33.8882 45.9067 29.4886C45.9067 25.1394 48.2329 22.4086 51.7223 22.4086C55.8693 22.4086 57.8921 25.6452 57.8921 29.438C57.8921 33.2814 56.1221 36.4674 51.7729 36.4674Z" fill="black"/>
<path d="M81.0319 44.306C89.0728 44.306 94.5851 38.3386 94.5851 30.6012C94.5851 22.8636 89.0728 16.8962 81.0319 16.8962C72.9911 16.8962 67.4788 22.8636 67.4788 30.6012C67.4788 38.3386 72.9911 44.306 81.0319 44.306ZM81.0319 39.0466C76.7839 39.0466 74.4577 35.6582 74.4577 30.6012C74.4577 25.544 76.7839 22.1052 81.0319 22.1052C85.2294 22.1052 87.6063 25.544 87.6063 30.6012C87.6063 35.6582 85.2294 39.0466 81.0319 39.0466Z" fill="black"/>
<path d="M311.89 13.3454C311.89 12.1817 312.834 11.2383 313.998 11.2383H318.212C319.376 11.2383 320.32 12.1817 320.32 13.3454C320.32 14.5092 319.376 15.4526 318.212 15.4526H313.998C312.834 15.4526 311.89 14.5092 311.89 13.3454Z" fill="black"/>
<path fill-rule="evenodd" clip-rule="evenodd" d="M136.295 0C152.587 0 165.796 13.2076 165.796 29.5C165.796 45.7924 152.587 59 136.295 59C120.003 59 106.795 45.7924 106.795 29.5C106.795 13.2076 120.003 0 136.295 0ZM135.229 2.20747C131.864 2.68109 128.659 5.38534 126.171 9.90816C125.45 11.2201 124.799 12.6695 124.232 14.2344C127.614 13.3844 131.33 12.8833 135.229 12.8058V2.20747ZM121.738 14.9429C122.444 12.7286 123.307 10.6914 124.303 8.88046C125.536 6.63837 127 4.70223 128.648 3.21516C119.682 5.81921 112.615 12.8868 110.01 21.8532C111.498 20.2043 113.434 18.7408 115.676 17.5077C117.487 16.5116 119.524 15.6484 121.738 14.9429ZM121.03 17.4361C120.18 20.8186 119.679 24.5343 119.601 28.4337H109.003C109.476 25.0682 112.181 21.8636 116.704 19.3762C118.015 18.6546 119.465 18.0036 121.03 17.4361ZM121.734 28.4337C121.822 24.1782 122.435 20.183 123.448 16.653C126.978 15.6394 130.974 15.0267 135.229 14.9387V19.5449C133.642 23.6091 130.404 26.8468 126.339 28.4337H121.734ZM119.601 30.5663H109.003C109.476 33.9318 112.181 37.1362 116.704 39.6238C118.015 40.3454 119.465 40.9964 121.03 41.5639C120.18 38.1814 119.679 34.4657 119.601 30.5663ZM123.448 42.347C122.435 38.817 121.822 34.8218 121.734 30.5663H126.339C130.404 32.1532 133.642 35.3909 135.229 39.4551V44.0613C130.974 43.9733 126.978 43.3606 123.448 42.347ZM121.738 44.0571C119.524 43.3516 117.487 42.4884 115.676 41.4923C113.434 40.2592 111.498 38.7957 110.01 37.1468C112.615 46.1132 119.682 53.1808 128.648 55.7848C127 54.2977 125.536 52.3616 124.303 50.1195C123.307 48.3086 122.444 46.2713 121.738 44.0571ZM135.229 56.7925C131.864 56.3189 128.659 53.6146 126.171 49.0918C125.45 47.78 124.799 46.3305 124.232 44.7657C127.614 45.6156 131.33 46.1168 135.229 46.1942V56.7925ZM143.942 55.7848C145.591 54.2977 147.055 52.3616 148.288 50.1195C149.283 48.3086 150.148 46.2713 150.853 44.0571C153.067 43.3516 155.104 42.4884 156.915 41.4923C159.157 40.2592 161.094 38.7957 162.58 37.1468C159.975 46.1132 152.909 53.1808 143.942 55.7848ZM148.36 44.7657C147.792 46.3305 147.14 47.78 146.419 49.0918C143.932 53.6146 140.727 56.3189 137.362 56.7925V46.1942C141.261 46.1168 144.977 45.6156 148.36 44.7657ZM151.561 41.5639C153.126 40.9964 154.576 40.3454 155.887 39.6238C160.411 37.1364 163.114 33.9318 163.588 30.5663H152.99C152.912 34.4657 152.41 38.1814 151.561 41.5639ZM150.857 30.5663C150.769 34.8218 150.156 38.817 149.142 42.347C145.612 43.3606 141.617 43.9733 137.362 44.0613V39.4585C138.949 35.3928 142.187 32.1537 146.253 30.5663H150.857ZM152.99 28.4337H163.588C163.114 25.0682 160.411 21.8636 155.887 19.3762C154.576 18.6546 153.126 18.0036 151.561 17.4361C152.41 20.8186 152.912 24.5343 152.99 28.4337ZM149.142 16.653C150.156 20.183 150.769 24.1782 150.857 28.4337H146.253C142.187 26.8463 138.949 23.6072 137.362 19.5415V14.9387C141.617 15.0267 145.612 15.6394 149.142 16.653ZM150.853 14.9429C153.067 15.6484 155.104 16.5116 156.915 17.5077C159.157 18.7408 161.094 20.2043 162.58 21.8532C159.975 12.8868 152.909 5.81921 143.942 3.21516C145.591 4.70223 147.055 6.63837 148.288 8.88046C149.283 10.6914 150.148 12.7286 150.853 14.9429ZM137.362 2.20747C140.727 2.68109 143.932 5.38534 146.419 9.90816C147.14 11.2201 147.792 12.6695 148.36 14.2344C144.977 13.3844 141.261 12.8833 137.362 12.8058V2.20747Z" fill="black"/>
</svg>
