<svg width="20" height="25" viewBox="0 0 20 25" fill="none" xmlns="http://www.w3.org/2000/svg">
<path d="M12.7395 17.3549V20.2985C12.7395 20.9217 12.5641 21.2333 12.2132 21.2333C12.0063 21.2333 11.8039 21.131 11.6059 20.9263V16.7271C11.8039 16.5225 12.0063 16.4202 12.2132 16.4202C12.5641 16.4202 12.7395 16.7318 12.7395 17.3549ZM17.3009 17.3689V18.0106H16.0864V17.3689C16.0864 16.7364 16.2888 16.4202 16.6937 16.4202C17.0985 16.4202 17.3009 16.7364 17.3009 17.3689ZM4.26451 14.3276H5.7085V13.0162H1.49798V14.3276H2.91498V22.2656H4.26451V14.3276ZM8.15115 22.2656H9.35223V15.3739H8.15115V20.6473C7.88124 21.0379 7.62483 21.2333 7.38192 21.2333C7.21997 21.2333 7.12551 21.1356 7.09852 20.9403C7.08952 20.9124 7.08502 20.7496 7.08502 20.452V15.3739H5.88394V20.8287C5.88394 21.2844 5.91993 21.6239 5.9919 21.8471C6.09986 22.1912 6.36077 22.3633 6.77463 22.3633C7.20648 22.3633 7.66532 22.0796 8.15115 21.5123V22.2656ZM13.9406 20.2009V17.4526C13.9406 16.7736 13.9001 16.3132 13.8192 16.0714C13.6662 15.5506 13.3468 15.2902 12.861 15.2902C12.4112 15.2902 11.9928 15.5413 11.6059 16.0435V13.0162H10.4049V22.2656H11.6059V21.596C12.0108 22.1075 12.4291 22.3633 12.861 22.3633C13.3468 22.3633 13.6662 22.1075 13.8192 21.596C13.9001 21.3449 13.9406 20.8798 13.9406 20.2009ZM18.502 20.0614V19.88H17.274C17.274 20.3544 17.265 20.638 17.247 20.731C17.184 21.0658 17.004 21.2333 16.7072 21.2333C16.2933 21.2333 16.0864 20.9124 16.0864 20.2706V19.0569H18.502V17.62C18.502 16.8852 18.3806 16.3458 18.1377 16.0017C17.7868 15.5273 17.3099 15.2902 16.7072 15.2902C16.0954 15.2902 15.614 15.5273 15.2632 16.0017C15.0112 16.3458 14.8853 16.8852 14.8853 17.62V20.0335C14.8853 20.7682 15.0157 21.3077 15.2767 21.6518C15.6275 22.1261 16.1134 22.3633 16.7341 22.3633C17.3819 22.3633 17.8677 22.1168 18.1916 21.6239C18.3536 21.3728 18.448 21.1217 18.475 20.8705C18.493 20.7868 18.502 20.5171 18.502 20.0614ZM10.2969 7.32422V4.39453C10.2969 3.75279 10.1035 3.43192 9.7166 3.43192C9.32973 3.43192 9.1363 3.75279 9.1363 4.39453V7.32422C9.1363 7.97526 9.32973 8.30078 9.7166 8.30078C10.1035 8.30078 10.2969 7.97526 10.2969 7.32422ZM20 17.8013C20 19.9777 19.883 21.6053 19.6491 22.6842C19.5232 23.2329 19.2623 23.6933 18.8664 24.0653C18.4705 24.4373 18.0117 24.6512 17.4899 24.707C15.8345 24.9023 13.3378 25 10 25C6.66217 25 4.16554 24.9023 2.51012 24.707C1.9883 24.6512 1.52722 24.4373 1.12686 24.0653C0.726496 23.6933 0.467836 23.2329 0.350877 22.6842C0.116959 21.6425 0 20.0149 0 17.8013C0 15.625 0.116959 13.9974 0.350877 12.9185C0.476833 12.3698 0.737742 11.9094 1.1336 11.5374C1.52946 11.1654 1.9928 10.9468 2.52362 10.8817C4.17004 10.6957 6.66217 10.6027 10 10.6027C13.3378 10.6027 15.8345 10.6957 17.4899 10.8817C18.0117 10.9468 18.4728 11.1654 18.8731 11.5374C19.2735 11.9094 19.5322 12.3698 19.6491 12.9185C19.883 13.9602 20 15.5878 20 17.8013ZM6.53171 0H7.90823L6.2753 5.56641V9.3471H4.92578V5.56641C4.79982 4.87816 4.52542 3.8923 4.10256 2.60882C3.76968 1.65086 3.47728 0.78125 3.22537 0H4.65587L5.61404 3.66908L6.53171 0ZM11.525 4.64565V7.08705C11.525 7.8404 11.399 8.38914 11.1471 8.73326C10.8052 9.20759 10.3284 9.44475 9.7166 9.44475C9.11381 9.44475 8.64148 9.20759 8.29959 8.73326C8.04768 8.37984 7.92173 7.8311 7.92173 7.08705V4.64565C7.92173 3.9016 8.04768 3.35751 8.29959 3.01339C8.64148 2.53906 9.11381 2.3019 9.7166 2.3019C10.3284 2.3019 10.8052 2.53906 11.1471 3.01339C11.399 3.35751 11.525 3.9016 11.525 4.64565ZM16.0459 2.3856V9.3471H14.8178V8.5798C14.341 9.15644 13.8776 9.44475 13.4278 9.44475C13.0139 9.44475 12.7485 9.27269 12.6316 8.92857C12.5596 8.70536 12.5236 8.35658 12.5236 7.88225V2.3856H13.7517V7.50558C13.7517 7.8125 13.7562 7.97526 13.7652 7.99386C13.7922 8.19847 13.8866 8.30078 14.0486 8.30078C14.2915 8.30078 14.5479 8.10082 14.8178 7.70089V2.3856H16.0459Z" fill="white"/>
</svg>
